<?xml version="1.0" encoding="UTF-8"?>
<svg version="1.1" xmlns="http://www.w3.org/2000/svg" width="223" height="51">
<path d="M0 0 C73.59 0 147.18 0 223 0 C223 16.83 223 33.66 223 51 C149.41 51 75.82 51 0 51 C0 34.17 0 17.34 0 0 Z " fill="#9C47FE" transform="translate(0,0)"/>
<path d="M0 0 C3.09799981 2.19126816 3.80352112 3.41056336 5 7 C5.763125 6.21625 6.52625 5.4325 7.3125 4.625 C10.85851599 1.1614495 12.9042658 -0.2996047 17.8125 -0.375 C22.61043504 -0.27694001 25.35537578 0.7198382 29 4 C31.75051149 8.47669457 31.61382082 12.89761442 31 18 C29.18511106 23.94994841 25.97865821 27.42835389 21 31 C17.81791315 32.59104343 14.4646251 32.40798389 11 32 C9.948125 31.443125 8.89625 30.88625 7.8125 30.3125 C6.884375 29.879375 5.95625 29.44625 5 29 C3.29883624 29.94011682 1.63495707 30.94895617 0 32 C-4.55673138 32.36747834 -7.41797967 32.1717437 -11.8125 30.875 C-12.864375 30.58625 -13.91625 30.2975 -15 30 C-15.99 30.66 -16.98 31.32 -18 32 C-21.6875 31.625 -21.6875 31.625 -25 31 C-24.67 28.69 -24.34 26.38 -24 24 C-22.02 23.67 -20.04 23.34 -18 23 C-18.10441406 21.49759766 -18.10441406 21.49759766 -18.2109375 19.96484375 C-18.79753224 7.85910877 -18.79753224 7.85910877 -15.125 3.625 C-10.60012086 -0.63756731 -6.02578528 -0.72036851 0 0 Z " fill="#F8F3FE" transform="translate(101,6)"/>
<path d="M0 0 C2 2 2 2 2.4375 5.25 C1.8694211 10.11924775 0.36384471 11.55205917 -3 15 C-2.67 15.33 -2.34 15.66 -2 16 C-1.625 19.25 -1.625 19.25 -2 23 C-5.57161807 27.50305318 -8.47147391 28.76932804 -14.0625 29.75 C-15.27035156 29.97171875 -16.47820313 30.1934375 -17.72265625 30.421875 C-19.34494141 30.70804688 -19.34494141 30.70804688 -21 31 C-21.76183594 31.23203125 -22.52367188 31.4640625 -23.30859375 31.703125 C-24.14583984 31.85007812 -24.14583984 31.85007812 -25 32 C-27 30 -27 30 -27.3125 26.75 C-27.20325822 21.36735967 -25.86432608 16.20037294 -24.65625 10.9765625 C-23.92823273 8.18249192 -23.92823273 8.18249192 -24 6 C-25.98 6.33 -27.96 6.66 -30 7 C-30 6.01 -30 5.02 -30 4 C-31.65 4 -33.3 4 -35 4 C-35.04898438 4.54785156 -35.09796875 5.09570312 -35.1484375 5.66015625 C-35.88505627 13.47085524 -36.93274598 21.22873284 -38 29 C-39.9914056 29.38133299 -41.99279077 29.71325582 -44 30 C-45 29 -45 29 -45.25 25.4375 C-45.20291492 18.18639774 -43.45802459 11.07315501 -42 4 C-43.65 4.33 -45.3 4.66 -47 5 C-47.66 7.31 -48.32 9.62 -49 12 C-50.65 11.67 -52.3 11.34 -54 11 C-54.43712969 5.75444371 -54.43712969 5.75444371 -54 3 C-51.18644707 0.11240621 -48.64682099 -1.93416008 -44.55737305 -2.09765625 C-43.55230713 -2.08605469 -42.54724121 -2.07445312 -41.51171875 -2.0625 C-39.86333008 -2.05089844 -39.86333008 -2.05089844 -38.18164062 -2.0390625 C-35.86393082 -2.01315183 -33.54622247 -1.98711149 -31.22851562 -1.9609375 C-30.12572266 -1.95320312 -29.02292969 -1.94546875 -27.88671875 -1.9375 C-26.37404419 -1.92009766 -26.37404419 -1.92009766 -24.83081055 -1.90234375 C-4.78847413 -2.59375682 -4.78847413 -2.59375682 0 0 Z " fill="#F8F3FE" transform="translate(78,8)"/>
<path d="M0 0 C3.125 1.5625 3.125 1.5625 5 4 C5.4375 7.625 5.4375 7.625 5 11 C4.34 11.66 3.68 12.32 3 13 C0.375 12.625 0.375 12.625 -2 12 C-2 10.02 -2 8.04 -2 6 C-5.95723818 6.2283022 -8.32996194 6.45022518 -11.4375 9 C-13.52165047 13.0015689 -13.71487182 16.56114474 -13 21 C-11.40003952 24.11130919 -11.40003952 24.11130919 -9.125 24.51171875 C-8.42375 24.56972656 -7.7225 24.62773437 -7 24.6875 C-5.948125 24.78611328 -5.948125 24.78611328 -4.875 24.88671875 C-3.58513348 24.96464819 -2.29221849 25 -1 25 C-1 24.01 -1 23.02 -1 22 C-2.65 22 -4.3 22 -6 22 C-6.042721 20.33388095 -6.04063832 18.66617115 -6 17 C-5 16 -5 16 -2.96875 15.8671875 C-2.1540625 15.86976562 -1.339375 15.87234375 -0.5 15.875 C0.3146875 15.87242188 1.129375 15.86984375 1.96875 15.8671875 C4 16 4 16 5 17 C5.36760731 19.32817964 5.70241581 21.6618385 6 24 C6.66 23.34 7.32 22.68 8 22 C10.34765625 22.20703125 10.34765625 22.20703125 13.0625 22.8125 C14.41021484 23.10060547 14.41021484 23.10060547 15.78515625 23.39453125 C18 24 18 24 19 25 C19.1875 27.4375 19.1875 27.4375 19 30 C17 32 17 32 14.375 32.125 C13.59125 32.08375 12.8075 32.0425 12 32 C11.34 30.68 10.68 29.36 10 28 C5.60758055 30.10296883 5.60758055 30.10296883 3.26171875 34.12890625 C2.96939824 35.67185016 2.71956532 37.22365135 2.51953125 38.78125 C1.86850248 41.56158339 1.04443435 43.00059724 -1 45 C-3.48046875 45.390625 -3.48046875 45.390625 -6.1875 45.25 C-7.08855469 45.21390625 -7.98960937 45.1778125 -8.91796875 45.140625 C-9.60503906 45.09421875 -10.29210937 45.0478125 -11 45 C-11.35338623 42.03155565 -11.5417682 39.84401782 -9.88671875 37.265625 C-8.64496832 35.79651181 -7.32662082 34.39295186 -6 33 C-7.01320312 32.76216797 -7.01320312 32.76216797 -8.046875 32.51953125 C-15.38476726 30.60022706 -15.38476726 30.60022706 -18.5625 27.5 C-21.45985185 22.46112722 -21.62170919 17.68173119 -21 12 C-17.51423434 1.95947934 -9.78403723 -1.07516893 0 0 Z " fill="#F8F3FE" transform="translate(154,6)"/>
<path d="M0 0 C1.2065625 0.0309375 1.2065625 0.0309375 2.4375 0.0625 C2.7675 2.3725 3.0975 4.6825 3.4375 7.0625 C5.0875 7.3925 6.7375 7.7225 8.4375 8.0625 C8.49145478 9.68713842 8.53027195 11.31228541 8.5625 12.9375 C8.58570312 13.84242187 8.60890625 14.74734375 8.6328125 15.6796875 C8.4375 18.0625 8.4375 18.0625 6.4375 20.0625 C4.16015625 20.29296875 4.16015625 20.29296875 1.5 20.25 C0.62472656 20.24355469 -0.25054687 20.23710937 -1.15234375 20.23046875 C-3.5625 20.0625 -3.5625 20.0625 -6.5625 19.0625 C-6.89466812 12.25920485 -6.85008339 7.11165344 -3.5625 1.0625 C-2.5625 0.0625 -2.5625 0.0625 0 0 Z " fill="#A150FE" transform="translate(95.5625,10.9375)"/>
<path d="M0 0 C2.74808262 2.74808262 2.3636712 4.47774534 2.4375 8.3125 C2.36839418 12.77476145 2.31339462 14.525431 -0.1875 18.3125 C-3.221728 20.1330368 -4.54841758 20.72664893 -8 20 C-9.8125 19 -9.8125 19 -11 17 C-11.45210723 11.57471328 -10.95650194 7.14868931 -9 2 C-5.54754176 -0.30163882 -4.05261287 -0.34490322 0 0 Z " fill="#9D49FE" transform="translate(122,12)"/>
<path d="M0 0 C0 1.32 0 2.64 0 4 C-3.26545761 5.88391785 -6.28111761 6.49287967 -10 7 C-10 8.32 -10 9.64 -10 11 C-8.02 11.66 -6.04 12.32 -4 13 C-4.33 14.65 -4.66 16.3 -5 18 C-7.97 18.33 -10.94 18.66 -14 19 C-14.23268915 12.71739294 -13.40454548 7.11980533 -12 1 C-13.65 0.67 -15.3 0.34 -17 0 C-17 -0.33 -17 -0.66 -17 -1 C-11.42991117 -2.39252221 -5.00818455 -3.3387897 0 0 Z " fill="#9D4BFE" transform="translate(73,13)"/>
<path d="M0 0 C0.78375 0.04125 1.5675 0.0825 2.375 0.125 C3.39791666 3.2878369 3.32580142 5.23745955 2.4140625 8.41796875 C2.18976563 9.21267578 1.96546875 10.00738281 1.734375 10.82617188 C1.49203125 11.64666016 1.2496875 12.46714844 1 13.3125 C0.64808594 14.56063477 0.64808594 14.56063477 0.2890625 15.83398438 C-1.47172321 21.97172321 -1.47172321 21.97172321 -2.625 23.125 C-4.29117115 23.16563832 -5.95888095 23.167721 -7.625 23.125 C-5.97492733 0.28452035 -5.97492733 0.28452035 0 0 Z " fill="#F4EFFE" transform="translate(187.625,5.875)"/>
<path d="M0 0 C0.78375 0.04125 1.5675 0.0825 2.375 0.125 C3.46057892 3.38495807 3.28810151 5.23042427 2.16015625 8.453125 C1.88623047 9.25234375 1.61230469 10.0515625 1.33007812 10.875 C1.03552734 11.7 0.74097656 12.525 0.4375 13.375 C0.14681641 14.21546875 -0.14386719 15.0559375 -0.44335938 15.921875 C-1.16121233 17.99305731 -1.88866119 20.06033262 -2.625 22.125 C-4.275 22.455 -5.925 22.785 -7.625 23.125 C-7.76590007 18.13585676 -7.30772028 13.68743852 -6.25 8.8125 C-5.99476563 7.59949219 -5.73953125 6.38648438 -5.4765625 5.13671875 C-4.43702975 1.46020613 -3.93189257 0.18723298 0 0 Z " fill="#F6F3FE" transform="translate(175.625,5.875)"/>
<path d="M0 0 C2.5625 -0.25 2.5625 -0.25 5 0 C5.33 0.33 5.66 0.66 6 1 C5.6938352 8.8072024 2.75082115 15.77275034 0 23 C-1.32 23 -2.64 23 -4 23 C-4.3482453 15.51272597 -4.21365034 6.32047551 0 0 Z " fill="#F9F3FE" transform="translate(197,6)"/>
<path d="M0 0 C0.309375 0.639375 0.61875 1.27875 0.9375 1.9375 C1.8345163 3.93610821 1.8345163 3.93610821 3 5 C3.07244053 7.01964199 3.08377188 9.04167124 3.0625 11.0625 C3.05347656 12.16722656 3.04445313 13.27195312 3.03515625 14.41015625 C3.02355469 15.26480469 3.01195313 16.11945312 3 17 C1.02 17.33 -0.96 17.66 -3 18 C-3.33 19.98 -3.66 21.96 -4 24 C-4.66 22.68 -5.32 21.36 -6 20 C-5.67 19.67 -5.34 19.34 -5 19 C-4.69476038 14.34911285 -4.69476038 14.34911285 -6 10 C-5.195625 9.278125 -4.39125 8.55625 -3.5625 7.8125 C-0.97707928 4.97484311 -0.31957187 3.72833853 0 0 Z " fill="#A85FFE" transform="translate(80,12)"/>
<path d="M0 0 C3 0.125 3 0.125 4 1.125 C4.1875 3.5625 4.1875 3.5625 4 6.125 C2 8.125 2 8.125 -0.5 8.375 C-3 8.125 -3 8.125 -5 6.125 C-4.27477017 0.17811542 -4.27477017 0.17811542 0 0 Z " fill="#F3EAFE" transform="translate(194,29.875)"/>
<path d="M0 0 C0.1875 2.375 0.1875 2.375 0 5 C-3 7 -3 7 -5.625 6.6875 C-8 6 -8 6 -9 5 C-9.04063832 3.33382885 -9.042721 1.66611905 -9 0 C-5.93109813 -1.53445094 -3.29905734 -0.54984289 0 0 Z " fill="#F4EAFE" transform="translate(186,31)"/>
<path d="M0 0 C0.33 0 0.66 0 1 0 C1.33 2.64 1.66 5.28 2 8 C0.68 8.99 -0.64 9.98 -2 11 C-1.85892253 9.54119891 -1.71197585 8.08296449 -1.5625 6.625 C-1.48128906 5.81289063 -1.40007813 5.00078125 -1.31640625 4.1640625 C-1 2 -1 2 0 0 Z " fill="#B868FE" transform="translate(61,17)"/>
</svg>
